<?xml version="1.0" standalone="no"?><!DOCTYPE svg PUBLIC "-//W3C//DTD SVG 1.1//EN" "http://www.w3.org/Graphics/SVG/1.1/DTD/svg11.dtd"><svg t="1701493165473" class="icon" viewBox="0 0 1024 1024" version="1.1" xmlns="http://www.w3.org/2000/svg" p-id="7179" xmlns:xlink="http://www.w3.org/1999/xlink" width="200" height="200"><path d="M730.904639 479.404628c-32.119535-108.043738-129.039935-180.5194-241.636363-180.5194-92.90597 0-177.813778 51.033303-222.007303 133.293819-102.690824 12.846586-179.924859 100.668771-179.924859 204.967208 0 101.858876 75.569116 189.739389 175.850054 204.459648l0.654916 0.059352 412.253228-0.831948 24.564465-0.149403c88.74316-16.35755 153.159262-94.067422 153.159262-184.773284C853.819063 577.100694 804.482401 506.378979 730.904639 479.404628zM674.845878 787.063683l-380.995317 0.029676-8.565073-0.477884c-79.19776-4.13211-141.263327-69.798692-141.263327-149.470243 0-78.513168 61.08524-144.031371 139.122571-149.20623 44.519959 2.349511 90.170672 27.212782 113.664759 61.978587l4.163833 5.619998c5.351891 8.118911 13.976316 12.907984 23.345708 12.907984 15.70161 0 28.460192-12.758582 28.460192-28.462239 0-3.032056-0.564865-6.095835-1.664919-9.219989l0.654916-0.326435-5.53097-8.41567c-0.447185-0.624217-0.86367-1.249457-1.249457-1.75497l-1.577938-2.229784c-0.682545-1.040702-1.188058-1.784646-1.723248-2.319835-28.104081-40.505529-65.457828-66.647933-111.138216-77.7989 36.4604-50.737568 96.861048-82.112136 158.719908-82.112136 91.568509 0 169.933297 62.692854 190.542684 152.417365l3.867074 16.71366 16.504906 4.40124c57.069787 15.225773 96.950076 67.270103 96.950076 126.572744C797.135062 725.470883 743.335762 783.077905 674.845878 787.063683z" fill="#ffffff" p-id="7180"></path><path d="M718.29546 255.077489c1.605567 0.268106 3.183506 0.387833 4.699022 0.387833 11.034311 0 20.311605-6.959505 22.066575-16.594957l5.592368-31.584346c0.861624-4.968152-0.298805-10.112312-3.331885-14.513552-3.626597-5.145184-9.515724-8.803503-16.236799-10.021238-13.383822-2.290159-24.803919 5.115508-26.765597 16.236799l-5.622044 31.55467C696.704722 241.755066 705.47855 252.757654 718.29546 255.077489z" fill="#ffffff" p-id="7181"></path><path d="M936.168606 387.925147c-2.467191-12.610202-13.59053-21.441335-24.801872-19.1215l-31.257911 6.185886c-5.739724 1.100054-10.646478 4.936429-13.531178 10.497075-2.52859 4.907777-3.300162 10.825556-2.170432 16.683984 2.200108 11.30037 11.121292 19.479657 21.234627 19.479657 1.277086 0 2.467191-0.119727 3.567245-0.356111l31.287587-6.215562C931.617963 412.876422 938.63682 400.683728 936.168606 387.925147z" fill="#ffffff" p-id="7182"></path><path d="M912.407436 497.338069l-30.126134-10.528797c-1.904373-0.684592-3.927449-1.040702-6.008854-1.040702-9.159614 0-17.903765 6.780427-21.264303 16.535605-4.222161 12.283768 1.040702 25.339108 11.748578 29.055756l30.215162 10.558473c1.961678 0.684592 4.01443 1.011027 6.036483 1.011027 9.18929 0 17.695011-6.631024 21.174252-16.535605C928.377152 514.082428 923.082566 501.054717 912.407436 497.338069z" fill="#ffffff" p-id="7183"></path><path d="M833.567833 312.772516c5.7694 0 10.914584-2.230808 14.542204-6.245238l21.443381-23.790846c7.554046-8.445346 5.916756-22.423709-3.628644-31.108508-8.861832-8.206916-24.149003-8.505721-31.315216-0.535189l-21.443381 23.792892c-7.552 8.445346-5.916756 22.391986 3.628644 31.136138C821.552172 310.305325 827.64903 312.772516 833.567833 312.772516z" fill="#ffffff" p-id="7184"></path><path d="M583.097268 263.076674c3.569292 5.619998 9.963932 8.982582 17.159822 8.982582 4.759397 0 9.517771-1.428535 13.769608-4.134157 10.914584-6.959505 14.899338-20.461007 8.862855-30.097482l-17.10047-27.062356c-3.479241-5.503341-9.993608-8.803503-17.427928-8.803503-4.757351 0-9.426697 1.369184-13.470803 3.955078-10.94426 6.989181-14.899338 20.490683-8.862855 30.067806L583.097268 263.076674z" fill="#ffffff" p-id="7185"></path><path d="M612.332103 271.672446c-12.520151 3.65832-20.906146 14.662955-20.906146 27.330462 0 15.942087 12.935614 28.877701 28.876678 28.877701 3.004427 0 6.008854-0.475837 8.982582-1.456165l0.089028 0.088004 1.902326-0.802272c13.889335-5.889127 29.859052-9.933233 42.707684-10.765181 2.705622-0.179079 5.411243-0.268106 8.05956-0.268106 63.999616 0 117.351732 50.438763 121.515564 114.824165 1.100054 17.637706-2.02103 35.628452-9.309016 53.532217-0.206708 0.505513-0.385786 0.981351-0.415462 1.159406-0.179079 0.356111-0.296759 0.714268-0.564865 1.485841l-0.624217 2.8847 0.208754 0.089028c-0.594541 2.081405-1.011027 4.28356-1.011027 6.6607 0 16.447601 13.352099 29.7997 29.7997 29.7997 8.980535 0 17.189498-4.13211 22.899546-11.449773l0.8913 0.417509 1.308809-2.737344c0.356111-0.682545 0.62524-1.367137 0.861624-2.111081 0.86367-1.605567 1.546216-3.270487 2.349511-5.590322 0.356111-0.803295 0.773619-1.694595 0.893346-2.290159 9.694803-23.703865 13.202697-47.018873 11.360745-75.628468-6.334265-99.539041-92.402503-176.7434-192.000895-169.664168-19.865443 1.277086-36.875862 5.560646-53.204759 13.322423C615.010095 270.036179 613.344153 270.958178 612.332103 271.672446z" fill="#ffffff" p-id="7186"></path></svg>