<?xml version="1.0" standalone="no"?><!DOCTYPE svg PUBLIC "-//W3C//DTD SVG 1.1//EN" "http://www.w3.org/Graphics/SVG/1.1/DTD/svg11.dtd"><svg t="1701481048735" class="icon" viewBox="0 0 1024 1024" version="1.1" xmlns="http://www.w3.org/2000/svg" p-id="2852" xmlns:xlink="http://www.w3.org/1999/xlink" width="200" height="200"><path d="M927.630222 173.511111l-0.853333 5.12-148.423111 615.537778a34.133333 34.133333 0 0 1-44.088889 24.348444l-4.949333-2.161777-263.566223-138.808889v171.349333a34.133333 34.133333 0 0 1-28.615111 33.678222l-5.518222 0.455111a34.133333 34.133333 0 0 1-33.678222-28.558222l-0.455111-5.575111v-215.04a34.133333 34.133333 0 0 1 6.826666-20.48l3.640889-4.096 356.693334-343.665778-542.378667 242.289778 121.514667 62.350222a34.133333 34.133333 0 0 1 16.952888 40.846222l-2.161777 5.12a34.133333 34.133333 0 0 1-40.789334 16.952889l-5.12-2.161777-184.888889-94.776889a34.133333 34.133333 0 0 1-3.242666-58.88l4.892444-2.673778 750.250667-335.189333a34.133333 34.133333 0 0 1 47.957333 34.076444z m-100.352 126.520889l-329.386666 317.269333 224.369777 118.215111 105.016889-435.484444z" fill="#ffffff" p-id="2853"></path></svg>